<svg width="20" height="21" viewBox="0 0 20 21" fill="none" xmlns="http://www.w3.org/2000/svg">
<g clip-path="url(#clip0_155_36)">
<path d="M8.20559 11.0775L3.33504 10.6325C3.1317 10.6141 2.98242 10.439 3.00138 10.2421C3.00582 10.1983 3.01792 10.1569 3.03688 10.1194L7.46645 0.710621C7.52818 0.578934 7.66253 0.501563 7.80294 0.501172L13.8883 0.5C14.0933 0.5 14.2595 0.660994 14.2595 0.859501C14.2595 0.939998 14.2324 1.01385 14.1865 1.07403L11.0693 5.97028L16.6697 6.56737C16.8731 6.58886 17.0199 6.76626 16.9973 6.96321C16.9888 7.04107 16.9539 7.11402 16.8981 7.1707L5.53873 20.371C5.40841 20.5231 5.17521 20.5438 5.01827 20.4172C4.89562 20.3187 4.85567 20.1593 4.90651 20.0217L8.20559 11.0775ZM3.92207 9.96661L8.7208 10.405C8.76034 10.4054 8.80069 10.4121 8.84023 10.4258C9.03308 10.4926 9.13354 10.6981 9.06495 10.8853L6.3057 18.361L15.904 7.20744L10.4069 6.62168C10.3523 6.61534 10.2999 6.5976 10.2531 6.56971C10.0797 6.46577 10.0256 6.24499 10.1329 6.07696L13.225 1.219H8.04017L3.92207 9.96661Z" fill="#ED9096" stroke="#ED9096" stroke-width="0.5"/>
</g>
<defs>
<clipPath id="clip0_155_36">
<rect width="14" height="20" fill="white" transform="translate(3 0.5)"/>
</clipPath>
</defs>
</svg>
