<svg width="20" height="21" viewBox="0 0 20 21" fill="none" xmlns="http://www.w3.org/2000/svg">
<g clip-path="url(#clip0_155_54)">
<path d="M15.5811 5.44145C17.2949 6.59542 18.7712 8.2686 19.891 10.3015L20 10.5L19.891 10.697C18.7712 12.7299 17.2933 14.403 15.5811 15.557C13.9095 16.6833 12.0117 17.3181 10 17.3181C7.98828 17.3181 6.0905 16.6833 4.42057 15.5586C2.70508 14.403 1.22884 12.7299 0.109049 10.697L0 10.5L0.109049 10.3015C1.22884 8.2686 2.70508 6.59542 4.41895 5.44145C6.0905 4.31677 7.98828 3.68201 10 3.68201C12.0117 3.68201 13.9079 4.31677 15.5811 5.44145ZM9.89421 7.29041L10.5583 7.35388C10.3223 7.7087 10.1823 8.13839 10.1823 8.60225C10.1823 9.8197 11.1361 10.806 12.3145 10.806C12.6921 10.806 13.0469 10.7051 13.3545 10.5261C13.3594 10.6026 13.3626 10.6791 13.3626 10.7572C13.3626 12.6729 11.8099 14.2256 9.89421 14.2256C7.97852 14.2256 6.42578 12.6729 6.42578 10.7572C6.42578 8.84314 7.97852 7.29041 9.89421 7.29041ZM17.7409 10.5C16.8457 8.92778 15.6885 7.63546 14.3571 6.73865C13.0469 5.85649 11.5658 5.35844 10 5.35844C8.43587 5.35844 6.95475 5.85649 5.64453 6.73865C4.31315 7.63546 3.15592 8.92778 2.25911 10.5C3.1543 12.0723 4.31315 13.3646 5.64453 14.2598C6.95475 15.142 8.43587 15.64 10 15.64C11.5658 15.64 13.0452 15.142 14.3571 14.2598C15.6885 13.3646 16.8457 12.0723 17.7409 10.5Z" fill="#4E58BA"/>
</g>
<defs>
<clipPath id="clip0_155_54">
<rect width="20" height="13.6361" fill="white" transform="translate(0 3.68201)"/>
</clipPath>
</defs>
</svg>
