<svg width="20" height="21" viewBox="0 0 20 21" fill="none" xmlns="http://www.w3.org/2000/svg">
<g clip-path="url(#clip0_155_40)">
<path d="M9.91048 2.48515C10.3971 1.72505 11.0433 1.31978 11.7204 1.17818C12.3633 1.04472 13.0225 1.16028 13.5905 1.44673C14.1504 1.72994 14.6305 2.18241 14.9251 2.72929C15.0358 2.93436 15.1221 3.15246 15.1774 3.37707C15.5078 3.37056 15.8447 3.42753 16.1719 3.53821C16.7936 3.74817 17.391 4.15995 17.8532 4.7052C18.3171 5.2537 18.6475 5.94543 18.7321 6.71203C18.7712 7.06522 18.7565 7.43306 18.68 7.80904C19.0202 8.1134 19.3034 8.45683 19.5166 8.82304C19.847 9.38781 20.0195 10.0144 20.0016 10.6508C19.9837 11.2921 19.7721 11.9334 19.3359 12.5242C19.0609 12.8969 18.6979 13.2469 18.2406 13.561C18.2829 14.5408 17.9932 15.4197 17.5244 16.1001C16.9938 16.8683 16.2256 17.3891 15.4281 17.5291C15.2523 18.2111 14.7998 18.8116 14.2155 19.2299C13.4766 19.7589 12.513 20.0079 11.6325 19.767C10.9831 19.5896 10.3923 19.16 9.98698 18.4031C9.49382 19.2348 8.81673 19.6743 8.1071 19.8224C7.25586 19.9998 6.37533 19.7378 5.71127 19.2202C5.18067 18.8068 4.7819 18.2257 4.63867 17.5665C4.36035 17.5551 4.07878 17.4998 3.80371 17.407C3.19662 17.2019 2.61231 16.8048 2.15495 16.2758C1.69597 15.7469 1.36231 15.0812 1.25814 14.3406C1.20443 13.9549 1.21257 13.5512 1.2972 13.1362C0.999351 12.866 0.743817 12.5616 0.540367 12.2312C0.185549 11.6665 -0.00813572 11.0284 2.30336e-06 10.3725C0.00814032 9.71171 0.218101 9.04114 0.67383 8.41939C0.93913 8.05806 1.28906 7.71301 1.73177 7.39725C1.72689 7.27681 1.72689 7.15637 1.73015 7.03755C1.76595 6.07238 2.12077 5.2244 2.63998 4.59126C3.17709 3.93534 3.89649 3.50565 4.63542 3.40149H4.63867C4.66472 3.29244 4.69564 3.18664 4.7347 3.08248C4.97233 2.43632 5.46224 1.88781 6.06283 1.53788C6.66667 1.18632 7.39258 1.03169 8.09896 1.17818C8.77767 1.31815 9.42383 1.72505 9.91048 2.48515ZM15.14 4.68567C15.0326 5.04048 14.8405 5.39693 14.5475 5.74361C14.3245 6.00891 13.929 6.04309 13.6637 5.82011C13.3984 5.59712 13.3643 5.20162 13.5872 4.93632C14.0592 4.37479 14.0641 3.7856 13.8151 3.32499C13.6426 3.00598 13.3577 2.73905 13.0225 2.56978C12.6953 2.40539 12.3258 2.33541 11.9743 2.40865C11.5055 2.5063 11.0514 2.86926 10.7373 3.60656C10.7422 3.63912 10.7454 3.6733 10.7454 3.70748V16.6779C10.7552 16.7088 10.7633 16.743 10.7699 16.7755C10.9505 17.8741 11.4258 18.4031 11.9596 18.5496C12.4528 18.6847 13.0208 18.5268 13.4733 18.2013C13.9176 17.8823 14.235 17.4168 14.2383 16.9269C14.2432 16.3686 13.833 15.7371 12.736 15.1772C12.4251 15.0193 12.3031 14.6385 12.4609 14.3276C12.6188 14.0167 12.9997 13.8947 13.3105 14.0525C14.5215 14.671 15.1595 15.4295 15.3939 16.1961C15.7829 16.0691 16.1605 15.7729 16.4469 15.3595C16.8066 14.8403 17.0101 14.142 16.9124 13.3575C16.8555 13.089 16.9727 12.8025 17.2217 12.6577C17.6969 12.3794 18.0469 12.0717 18.2845 11.7478C18.5547 11.3833 18.6849 10.9959 18.6963 10.615C18.7077 10.2309 18.597 9.84354 18.3854 9.48222C18.1917 9.15181 17.9183 8.84745 17.5749 8.59029C17.3356 8.43078 17.2217 8.12317 17.3193 7.83834C17.4349 7.49654 17.4658 7.16451 17.4316 6.85201C17.3779 6.36047 17.1598 5.91288 16.8555 5.54992C16.5479 5.18534 16.154 4.9119 15.752 4.77681C15.5436 4.7052 15.3353 4.67265 15.14 4.68567ZM4.69564 16.2644C4.94629 15.4767 5.6071 14.6905 6.85384 14.0542C7.16472 13.8963 7.54395 14.0183 7.70345 14.3292C7.86133 14.6401 7.73926 15.0193 7.42839 15.1788C6.27279 15.7697 5.83822 16.4467 5.83822 17.0376C5.83822 17.4982 6.10026 17.9295 6.48275 18.2273C6.87012 18.5284 7.37142 18.6847 7.84343 18.587C8.43262 18.465 9.00065 17.9197 9.29525 16.7332V4.2511C9.00065 3.07271 8.43262 2.53072 7.84505 2.40865C7.45768 2.32727 7.0459 2.42004 6.69434 2.62512C6.33952 2.83182 6.05306 3.14921 5.91797 3.51542C5.73731 4.0037 5.84473 4.60429 6.45508 5.16906C6.70899 5.40507 6.72526 5.80057 6.48926 6.05448C6.25326 6.30839 5.85775 6.32466 5.60384 6.08866C5.12858 5.64921 4.83561 5.18209 4.68913 4.71659C4.31478 4.80611 3.94531 5.0535 3.64746 5.41646C3.29753 5.84289 3.05827 6.41906 3.03386 7.0815C3.02735 7.25728 3.03711 7.44283 3.06315 7.63326H3.06153C3.09571 7.88065 2.98503 8.13619 2.75879 8.27616C2.30143 8.55774 1.96289 8.86698 1.72689 9.18925C1.44043 9.57987 1.3086 9.99003 1.30371 10.3855C1.29883 10.7876 1.42253 11.1863 1.64388 11.546C1.83106 11.8504 2.08822 12.1271 2.40072 12.3598C2.63509 12.521 2.74577 12.8237 2.64974 13.1069C2.52604 13.4731 2.49837 13.8295 2.54558 14.16C2.61231 14.6368 2.83366 15.0714 3.1364 15.4213C3.44076 15.7729 3.82487 16.035 4.21875 16.1684C4.37826 16.227 4.53939 16.2579 4.69564 16.2644ZM4.83887 7.39563C5.08627 7.15311 5.4834 7.15637 5.72754 7.40377C5.97005 7.65116 5.9668 8.0483 5.7194 8.29244C5.18067 8.82304 4.89909 9.50663 4.86979 10.2065C4.8405 10.9275 5.07487 11.6681 5.56641 12.2784C5.78451 12.5486 5.74056 12.9441 5.47038 13.1622C5.2002 13.3803 4.80469 13.3364 4.58659 13.0662C3.89811 12.2133 3.57097 11.1749 3.61328 10.1577C3.65723 9.1453 4.0625 8.15897 4.83887 7.39563ZM13.7549 7.99947C13.4733 7.79602 13.4115 7.40214 13.6149 7.12056C13.8184 6.83899 14.2122 6.77551 14.4938 6.98059C14.6191 7.07173 14.738 7.16776 14.8486 7.26867C15.6673 8.00761 16.1149 8.98254 16.1963 9.99166C16.2777 10.991 15.9993 12.0229 15.3695 12.8888C15.2767 13.0157 15.1774 13.1394 15.07 13.2583C14.8372 13.517 14.4401 13.5382 14.1813 13.3055C13.9225 13.0727 13.9014 12.6756 14.1341 12.4168C14.2122 12.3305 14.2839 12.241 14.3506 12.1499C14.7998 11.5314 14.9984 10.7989 14.9414 10.0893C14.8844 9.39107 14.5752 8.71561 14.0072 8.20455C13.9274 8.13293 13.8444 8.06457 13.7549 7.99947Z" fill="#FECD6D"/>
</g>
<defs>
<clipPath id="clip0_155_40">
<rect width="20" height="18.7549" fill="white" transform="translate(0 1.12256)"/>
</clipPath>
</defs>
</svg>
